<svg xmlns="http://www.w3.org/2000/svg" width="50" height="50" viewBox="0 0 50 50" >
    <rect rx="5" ry="5" x="0" y="0" width="50" height="50" fill="#3d4350"/>
    <text x="4" y="14" font-family="sans-serif" font-size="12" fill="#a6b2c0" font-weight="bold">
        C
    </text>
    <path transform="translate(-3,-3),scale(0.75)" fill="#a6b2c0" fill-opacity="1" stroke-width="0.2" stroke-linejoin="round" d="m 20.623425,27.501226 c -0.1983,1.1826 -1.2266,2.0837 -2.4655,2.0837 -1.3807,0 -2.5,-1.1193 -2.5,-2.5 0,-1.3807 1.1193,-2.5 2.5,-2.5 1.1778,0 2.1653,0.8144 2.4302,1.9108 L 47.6012,20.6473 C 52.4588,19.0119 56.9161,18.1864 58,18 l 0,-1 5,0 0,5 -5,0 0,-1 c -2.4296,0.4714 -21.75,4.503 -21.75,12 0,7 12.75,5 12.75,12 0,4.4239 -8.8682,8.2363 -16.7965,10.7606 l 24.825,-3.6394 C 57.2111,50.9202 58.2481,50 59.5,50 c 1.3807,0 2.5,1.1193 2.5,2.5 0,1.3807 -1.1193,2.5 -2.5,2.5 -1.1651,0 -2.144,-0.797 -2.4214,-1.8755 L 24.9161,57.8396 C 21.9849,58.5893 20,59 20,59 l 0,1 -5,0 0,-5 5,0 0,1 C 24,55 45.5,49 45.5,45 45.5,41 33,42 33,33 33,28.1682 37.8719,24.6778 43.3358,22.2833 z m -2.4655,1.0837 c 0.8284,0 1.5,-0.6716 1.5,-1.5 0,-0.8284 -0.6716,-1.5 -1.5,-1.5 -0.8284,0 -1.5,0.6716 -1.5,1.5 0,0.8284 0.6716,1.5 1.5,1.5 z M 59,18 l 0,3 3,0 0,-3 z m -43,38 0,3 3,0 0,-3 z M 59.5,51 C 58.6716,51 58,51.6716 58,52.5 58,53.3284 58.6716,54 59.5,54 60.3284,54 61,53.3284 61,52.5 61,51.6716 60.3284,51 59.5,51 z"/>
</svg>
