<svg xmlns="http://www.w3.org/2000/svg" width="50" height="50"><rect width="50" height="50" fill="#3d4350" rx="5" ry="5"/><text x="4" y="14" fill="#a6b2c0" font-size="12" font-weight="bold" font-family="sans-serif">Z</text><path fill="#a6b2c0" d="M36.153049 26.024326c0-5.779644-4.768088-10.464998-10.649804-10.464998s-10.649813 4.685354-10.649813 10.464998c0 5.779644 4.768097 10.464985 10.649813 10.464985v1.531463c-6.742472 0-12.208325-5.370986-12.208325-11.996448 0-6.625463 5.465853-11.99646 12.208325-11.99646 6.742473 0 12.208313 5.370997 12.208313 11.99646z"/><path fill="#a6b2c0" d="M27.436202 14.8710821a1.85408107 1.89153378 0 1 1-3.70816215 0 1.85408107 1.89153378 0 1 1 3.70816214 0zm-11.59726 11.084291a1.85408107 1.89153378 0 1 1-3.70816215 0 1.85408107 1.89153378 0 1 1 3.70816214 0zm11.685239 11.310713a1.85408107 1.89153378 0 1 1-3.70816215 0 1.85408107 1.89153378 0 1 1 3.70816214 0zm11.160901-11.160902a1.85408107 1.89153378 0 1 1-3.70816215 0 1.85408107 1.89153378 0 1 1 3.70816214 0z"/></svg>

