<svg xmlns="http://www.w3.org/2000/svg" width="50" height="50" viewBox="0 0 50 50" >
    <rect rx="5" ry="5" x="0" y="0" width="50" height="50" fill="#3d4350"/>
    <text x="4" y="14" font-family="sans-serif" font-size="12" fill="#a6b2c0" font-weight="bold">
        M
    </text>
    <path transform="translate(-3,-3),scale(0.75)" fill="#a6b2c0"
        fill-opacity="1" stroke-width="0.2" stroke-linejoin="round" d="M 25,36L 36,36L 36,25L 31,25L 38,18L 45,25L 40,25L 40,36L 51,36L 51,31L 58,38L 51,45L 51,40L 40,40L 40,51L 45,51L 38,58L 31,51L 36,51L 36,40L 25,40L 25,45L 18,38L 25,31L 25,36 Z "/>
</svg>
