<svg xmlns="http://www.w3.org/2000/svg" width="50" height="50" viewBox="0 0 50 50" >
    <rect rx="5" ry="5" x="0" y="0" width="50" height="50" fill="#3d4350"/>
    <text x="4" y="14" font-family="sans-serif" font-size="12" fill="#a6b2c0" font-weight="bold">
        Q
    </text>
    <path transform="translate(-3,-3),scale(0.75)" fill="#a6b2c0" fill-opacity="1" stroke-width="3" stroke-linejoin="round" d="m 39.774163,21.920362 c 6.157356,1.702813 15.59426,1.354754 16.905548,10.640235 0.901186,6.381471 -17.849315,16.274678 -25.26387,21.776509 L 60.95411,48.522073 c 0.199656,-1.749631 1.333515,-3.090189 2.702347,-3.090189 1.509662,0 2.733509,1.630609 2.733509,3.642029 0,2.01142 -1.223847,3.642029 -2.733509,3.642029 -1.273924,0 -2.344257,-1.161079 -2.647567,-2.73225 l -35.166591,6.869012 c -3.204985,1.092172 -5.375281,1.690484 -5.375281,1.690484 L 20.467018,60 15,60 l 0,-7.284058 5.467018,0 0,1.456812 C 24.840632,52.715942 53.707987,38.55888 52.852799,32.560597 52.030313,26.791687 45.342609,28.58925 37.30384,23.345676 35.705491,22.245025 36.235238,21.101077 39.774163,21.920362 z m -23.680759,32.252392 0,4.370434 3.28021,0 0,-4.370434 z m 47.563053,-7.284059 c -0.905776,0 -1.640105,0.978395 -1.640105,2.185218 0,1.206823 0.734329,2.185217 1.640105,2.185217 0.905775,0 1.640105,-0.978394 1.640105,-2.185217 0,-1.206823 -0.73433,-2.185218 -1.640105,-2.185218 z"/>
</svg>
