<svg xmlns="http://www.w3.org/2000/svg" width="50" height="50" viewBox="0 0 50 50" >
    <rect rx="5" ry="5" x="0" y="0" width="50" height="50" fill="#3d4350"/>
    <text x="4" y="14" font-family="sans-serif" font-size="12" fill="#a6b2c0" font-weight="bold">
        T
    </text>
    <path transform="translate(-3,-3),scale(0.75)" fill="#a6b2c0" fill-opacity="1" stroke-width="3" stroke-linejoin="round" d="m 20.467018,58.543188 c -5.930512,0.469127 -1.588983,-3.992104 0,-4.370434 m 0,0 C 24.840632,52.715942 53.707987,38.55888 52.852799,32.560597 52.030313,26.791687 45.342609,28.58925 37.30384,23.345676 c -1.598349,-1.100651 -1.068602,-2.244599 2.470323,-1.425314 6.157356,1.702813 15.59426,1.354754 16.905548,10.640235 0.901186,6.381471 -17.849315,16.274678 -25.26387,21.776509 -1.665197,0.923424 -3.043746,1.315745 -5.573542,2.515598 -3.204985,1.092172 -5.375281,1.690484 -5.375281,1.690484"/>
</svg>
