<svg xmlns="http://www.w3.org/2000/svg" width="50" height="50" viewBox="0 0 50 50" >
    <rect rx="5" ry="5" x="0" y="0" width="50" height="50" fill="#3d4350"/>
    <text x="4" y="14" font-family="sans-serif" font-size="12" fill="#a6b2c0" font-weight="bold">
        S
    </text>
    <path transform="translate(-3,-3),scale(0.75)" fill="#a6b2c0" fill-opacity="1" stroke-width="0.2" stroke-linejoin="round" d="m 55.245763,18.741525 c 2.455235,-0.3591 2.402295,1.73339 0.529661,2.523306 m 0,0 C 53.345824,21.736231 36.25,25.503 36.25,33 c 0,7 12.75,5 12.75,12 0,4.4239 -8.8682,8.2363 -16.7965,10.7606 l 24.825,-3.6394 C 57.2111,50.9202 58.2481,50 59.5,50 c 1.3807,0 2.5,1.1193 2.5,2.5 0,1.3807 -1.1193,2.5 -2.5,2.5 -1.1651,0 -2.144,-0.797 -2.4214,-1.8755 L 24.9161,57.8396 C 21.9849,58.5893 20,59 20,59 l 0,1 -5,0 0,-5 5,0 0,1 C 24,55 45.5,49 45.5,45 45.5,41 33,42 33,33 c 0,-4.8318 4.8719,-8.3222 10.3358,-10.7167 2.354405,-0.909351 1.735642,-0.761039 4.2654,-1.636 4.8576,-1.6354 6.613629,-1.719375 7.697529,-1.905775 M 16,56 l 0,3 3,0 0,-3 z M 59.5,51 C 58.6716,51 58,51.6716 58,52.5 58,53.3284 58.6716,54 59.5,54 60.3284,54 61,53.3284 61,52.5 61,51.6716 60.3284,51 59.5,51 z"/>
</svg>
